<svg xmlns="http://www.w3.org/2000/svg" width="112" height="16" fill="none"><path fill="#fff" d="M.894 15 5.434.6h3.53l4.54 14.4h-2.48L6.904 2.08h.54L3.374 15H.894zm2.53-3.12V9.63h7.56v2.25h-7.56zm17.437 3.42a7.04 7.04 0 0 1-2.63-.49 6.282 6.282 0 0 1-2.15-1.46c-.613-.64-1.093-1.423-1.44-2.35-.346-.934-.52-2-.52-3.2 0-1.574.294-2.917.88-4.03.587-1.12 1.39-1.977 2.41-2.57 1.02-.6 2.17-.9 3.45-.9 1.774 0 3.177.413 4.21 1.24 1.04.82 1.744 1.973 2.11 3.46l-2.46.39c-.273-.854-.72-1.534-1.34-2.04-.62-.514-1.41-.77-2.37-.77-.966-.014-1.77.196-2.41.63-.64.433-1.123 1.043-1.45 1.83-.32.786-.48 1.706-.48 2.76 0 1.053.16 1.97.48 2.75.32.773.8 1.377 1.44 1.81.647.433 1.454.657 2.42.67.727.007 1.364-.123 1.91-.39a3.338 3.338 0 0 0 1.34-1.23c.347-.553.58-1.244.7-2.07h-2.54V7.45h5.1a5 5 0 0 1 .03.47c.007.206.01.33.01.37 0 1.36-.27 2.57-.81 3.63a5.985 5.985 0 0 1-2.3 2.48c-1 .6-2.196.9-3.59.9zm9.109-.3v-2.47h2.47V15h-2.47zm15.008.3c-1.053 0-2.003-.184-2.85-.55a5.383 5.383 0 0 1-2.08-1.57c-.54-.687-.883-1.5-1.03-2.44l2.5-.38c.213.853.65 1.513 1.31 1.98.667.466 1.433.7 2.3.7.513 0 .997-.08 1.45-.24.453-.16.82-.394 1.1-.7.287-.307.43-.684.43-1.13 0-.2-.033-.384-.1-.55a1.31 1.31 0 0 0-.3-.46 1.858 1.858 0 0 0-.5-.36c-.2-.114-.433-.21-.7-.29l-3.72-1.1c-.32-.094-.667-.217-1.04-.37a4.48 4.48 0 0 1-1.05-.65 3.343 3.343 0 0 1-.81-1.06c-.207-.434-.31-.967-.31-1.6 0-.927.233-1.704.7-2.33.473-.634 1.107-1.107 1.9-1.42.8-.314 1.687-.467 2.66-.46.987.006 1.867.176 2.64.51.773.326 1.42.803 1.94 1.43.52.626.887 1.383 1.1 2.27l-2.59.45a2.813 2.813 0 0 0-.62-1.29c-.3-.36-.67-.634-1.11-.82a3.736 3.736 0 0 0-2.73-.08c-.407.146-.737.36-.99.64-.247.28-.37.606-.37.98 0 .353.107.643.32.87.213.22.477.396.79.53.32.126.643.233.97.32l2.58.72c.353.093.75.22 1.19.38.44.16.863.383 1.27.67.407.286.74.663 1 1.13.267.466.4 1.06.4 1.78 0 .746-.157 1.403-.47 1.97a4.126 4.126 0 0 1-1.25 1.4 5.718 5.718 0 0 1-1.81.84 7.9 7.9 0 0 1-2.12.28zm11.275-.3V2.86h-4.66V.6h11.73v2.26h-4.66V15h-2.41zm14.469.3c-1.147 0-2.157-.234-3.03-.7a5.132 5.132 0 0 1-2.04-1.97c-.487-.847-.73-1.84-.73-2.98V.62l2.44-.02v8.99c0 .54.09 1.023.27 1.45.186.427.436.79.75 1.09.313.293.673.516 1.08.67.406.153.826.23 1.26.23.446 0 .87-.077 1.27-.23a3.37 3.37 0 0 0 1.08-.68c.313-.3.56-.663.74-1.09.18-.427.27-.907.27-1.44V.6h2.44v9.05c0 1.14-.247 2.133-.74 2.98a5.049 5.049 0 0 1-2.04 1.97c-.867.466-1.874.7-3.02.7zm8.594-.3V.6h4.59c.12 0 .357.003.71.01.36.006.707.03 1.04.07 1.14.146 2.103.553 2.89 1.22.793.66 1.393 1.503 1.8 2.53.407 1.026.61 2.15.61 3.37 0 1.22-.203 2.343-.61 3.37-.407 1.027-1.007 1.873-1.8 2.54-.787.66-1.75 1.063-2.89 1.21-.327.04-.67.063-1.03.07-.36.006-.6.01-.72.01h-4.59zm2.45-2.27h2.14c.2 0 .453-.007.76-.02a5.84 5.84 0 0 0 .83-.09c.68-.127 1.233-.43 1.66-.91.427-.48.74-1.064.94-1.75.207-.687.31-1.407.31-2.16 0-.78-.103-1.514-.31-2.2-.207-.687-.527-1.264-.96-1.73-.427-.467-.973-.764-1.64-.89a4.273 4.273 0 0 0-.83-.09 18.11 18.11 0 0 0-.76-.02h-2.14v9.86zM93.52 15V.6h2.41V15h-2.41zm11.495.3c-1.44 0-2.673-.314-3.7-.94-1.026-.633-1.816-1.513-2.37-2.64-.546-1.127-.82-2.434-.82-3.92 0-1.487.274-2.794.82-3.92.554-1.127 1.344-2.004 2.37-2.63 1.027-.634 2.26-.95 3.7-.95 1.44 0 2.674.316 3.7.95 1.034.626 1.824 1.503 2.37 2.63.554 1.126.83 2.433.83 3.92 0 1.486-.276 2.793-.83 3.92-.546 1.127-1.336 2.006-2.37 2.64-1.026.627-2.26.94-3.7.94zm0-2.27c.967.007 1.77-.207 2.41-.64.647-.434 1.13-1.043 1.45-1.83.327-.787.49-1.707.49-2.76 0-1.054-.163-1.967-.49-2.74-.32-.78-.803-1.387-1.45-1.82-.64-.434-1.443-.657-2.41-.67-.966-.007-1.77.206-2.41.64-.64.433-1.123 1.043-1.45 1.83-.32.786-.48 1.706-.48 2.76 0 1.053.16 1.97.48 2.75.32.773.8 1.377 1.44 1.81.647.433 1.454.657 2.42.67z"/><path fill="#7DFCD8" d="M29.97 15v-2.47h2.47V15h-2.47z"/></svg>